<svg width="122" height="122" viewBox="0 0 122 122" fill="none" xmlns="http://www.w3.org/2000/svg">
<g filter="url(#filter0_d_9176_84668)">
<g clip-path="url(#clip0_9176_84668)">
<rect x="9.4375" y="9.7793" width="93.223" height="93.223" rx="27.9669" fill="white"/>
</g>
<rect x="10.6028" y="10.9446" width="90.8924" height="90.8924" rx="26.8016" stroke="#00A5D4" stroke-width="2.33057"/>
<path d="M51.2072 62.9448L44.9413 69.289C44.0673 70.1739 43.6303 70.6164 43.2547 70.6476C42.9288 70.6747 42.6097 70.5437 42.3969 70.2954C42.1516 70.0093 42.1516 69.3874 42.1516 68.1436V64.9652C42.1516 63.8494 41.2378 63.042 40.1337 62.8802C37.4616 62.4888 35.363 60.3902 34.9716 57.7181C34.907 57.2775 34.907 56.7518 34.907 55.7003V46.2371C34.907 42.8138 34.907 41.1021 35.5733 39.7945C36.1593 38.6444 37.0944 37.7093 38.2446 37.1233C39.5521 36.457 41.2638 36.457 44.6871 36.457L59.7648 36.457C63.1881 36.457 64.8998 36.457 66.2073 37.1233C67.3575 37.7093 68.2926 38.6444 68.8786 39.7945C69.5449 41.1021 69.5449 42.8138 69.5449 46.2371V54.7947M69.5449 77.2074L65.1104 74.1244C64.487 73.691 64.1754 73.4743 63.8361 73.3207C63.5351 73.1843 63.2186 73.0851 62.8935 73.0252C62.5273 72.9577 62.1477 72.9577 61.3885 72.9577H57.7273C55.445 72.9577 54.3039 72.9577 53.4322 72.5136C52.6654 72.1229 52.042 71.4995 51.6513 70.7327C51.2072 69.861 51.2072 68.7199 51.2072 66.4377V61.3148C51.2072 59.0325 51.2072 57.8914 51.6513 57.0197C52.042 56.2529 52.6654 55.6295 53.4322 55.2389C54.3039 54.7947 55.445 54.7947 57.7273 54.7947L69.1374 54.7947C71.4196 54.7947 72.5607 54.7947 73.4324 55.2389C74.1992 55.6295 74.8226 56.2529 75.2133 57.0197C75.6574 57.8914 75.6574 59.0325 75.6574 61.3148V66.8452C75.6574 68.7439 75.6574 69.6933 75.3472 70.4421C74.9336 71.4406 74.1403 72.2339 73.1418 72.6475C72.393 72.9577 71.4436 72.9577 69.5449 72.9577V77.2074Z" stroke="#00A5D4" stroke-width="4.07504" stroke-linecap="round" stroke-linejoin="round"/>
</g>
<defs>
<filter id="filter0_d_9176_84668" x="0.115201" y="0.456997" width="121.19" height="121.19" filterUnits="userSpaceOnUse" color-interpolation-filters="sRGB">
<feFlood flood-opacity="0" result="BackgroundImageFix"/>
<feColorMatrix in="SourceAlpha" type="matrix" values="0 0 0 0 0 0 0 0 0 0 0 0 0 0 0 0 0 0 127 0" result="hardAlpha"/>
<feOffset dx="4.66115" dy="4.66115"/>
<feGaussianBlur stdDeviation="6.99172"/>
<feComposite in2="hardAlpha" operator="out"/>
<feColorMatrix type="matrix" values="0 0 0 0 0 0 0 0 0 0 0 0 0 0 0 0 0 0 0.25 0"/>
<feBlend mode="normal" in2="BackgroundImageFix" result="effect1_dropShadow_9176_84668"/>
<feBlend mode="normal" in="SourceGraphic" in2="effect1_dropShadow_9176_84668" result="shape"/>
</filter>
<clipPath id="clip0_9176_84668">
<rect x="9.4375" y="9.7793" width="93.223" height="93.223" rx="27.9669" fill="white"/>
</clipPath>
</defs>
</svg>
